<svg width="261" height="61" viewBox="0 0 261 61" fill="none" xmlns="http://www.w3.org/2000/svg">
<path d="M0.62 41.88L5 40.68V17.7C5 16.66 4.92 15.98 4.76 15.66C4.6 15.3 4.18 14.98 3.5 14.7L0.5 12.96L0.68 7.56H33.26C33.54 11.76 33.68 15.86 33.68 19.86L29.24 20.16L24.98 14.88L15.92 14.64V24.42L28.7 23.34V32.58L15.92 31.2V40.86L25.88 40.68L30.5 35.4L34.94 35.7C34.78 39.9 34.48 44 34.04 48H0.92L0.62 41.88ZM49.9147 48.84C46.7147 48.84 44.3347 47.9 42.7747 46.02C41.2147 44.1 40.4347 41.22 40.4347 37.38V26.64C40.4347 25.76 40.3547 25.2 40.1947 24.96C40.0747 24.68 39.7347 24.38 39.1747 24.06L36.4747 22.62L36.7747 18.12C37.3347 18.04 37.7347 17.96 37.9747 17.88C38.4147 17.8 39.9747 17.52 42.6547 17.04C45.3747 16.56 47.6347 16.28 49.4347 16.2C49.8747 17.2 50.2147 18.36 50.4547 19.68V34.8C50.4547 36.56 50.4947 37.8 50.5747 38.52C50.6947 39.24 51.0147 39.8 51.5347 40.2C52.0947 40.56 53.0347 40.74 54.3547 40.74C56.2747 40.74 58.1347 40.4 59.9347 39.72V26.64C59.9347 25.76 59.8747 25.2 59.7547 24.96C59.6347 24.68 59.3147 24.38 58.7947 24.06L56.1547 22.62L56.3947 18.12C59.6347 17.52 62.1547 17.06 63.9547 16.74C65.7947 16.42 67.4747 16.24 68.9947 16.2C69.4347 17.2 69.7747 18.36 70.0147 19.68V39.36C70.0147 40.08 70.0747 40.58 70.1947 40.86C70.3147 41.14 70.5947 41.42 71.0347 41.7L73.4347 43.08L73.2547 46.8C71.5347 47.24 69.5547 47.64 67.3147 48C65.0747 48.32 62.9947 48.52 61.0747 48.6C60.9147 48.12 60.7347 47.52 60.5347 46.8C60.4947 46.48 60.3947 46.1 60.2347 45.66H60.0547C58.4147 46.62 56.6747 47.4 54.8347 48C53.0347 48.56 51.3947 48.84 49.9147 48.84ZM74.8761 55.2L78.5961 54.18V26.64C78.5961 25.76 78.5361 25.2 78.4161 24.96C78.2961 24.68 77.9561 24.38 77.3961 24.06L74.6961 22.62L74.9961 18.12C75.1961 18.08 75.3961 18.04 75.5961 18C75.7961 17.96 76.0161 17.92 76.2561 17.88C78.1361 17.52 80.1161 17.18 82.1961 16.86C84.3161 16.5 86.0561 16.28 87.4161 16.2C87.7761 17.04 88.0161 18 88.1361 19.08C89.3761 18.08 90.6961 17.32 92.0961 16.8C93.5361 16.28 94.9561 16.02 96.3561 16.02C100.356 16.02 103.416 17.44 105.536 20.28C107.696 23.08 108.776 27.08 108.776 32.28C108.776 37.68 107.296 41.82 104.336 44.7C101.376 47.54 97.0961 48.96 91.4961 48.96C90.8961 48.96 89.9561 48.92 88.6761 48.84V52.14C88.6761 53.02 88.7361 53.6 88.8561 53.88C88.9761 54.16 89.3161 54.44 89.8761 54.72L93.4161 56.7L93.1761 60.9H75.1761L74.8761 55.2ZM93.0561 41.52C94.9361 41.52 96.4561 41.26 97.6161 40.74C97.9361 39.74 98.1961 38.54 98.3961 37.14C98.6361 35.7 98.7561 34.36 98.7561 33.12C98.7561 30.04 98.2161 27.66 97.1361 25.98C96.0961 24.3 94.6361 23.46 92.7561 23.46C91.5961 23.46 90.2361 23.8 88.6761 24.48V40.8C89.8361 41.28 91.2961 41.52 93.0561 41.52ZM110.482 42.3L114.202 41.22V12.48C114.202 11.6 114.142 11.04 114.022 10.8C113.902 10.52 113.582 10.22 113.062 9.9L110.422 8.52L110.602 3.96L112.462 3.66C117.742 2.7 121.442 2.18 123.562 2.1C123.922 3.06 124.182 4.1 124.342 5.22V18.9C126.542 17.9 128.402 17.18 129.922 16.74C131.482 16.26 133.022 16.02 134.542 16.02C140.782 16.02 143.902 19.82 143.902 27.42V39.24C143.902 40.08 143.962 40.64 144.082 40.92C144.202 41.2 144.542 41.5 145.102 41.82L147.982 43.5L147.742 48H131.182L130.882 42.3L133.822 41.46V30.06C133.822 28.3 133.762 27.06 133.642 26.34C133.562 25.58 133.242 25 132.682 24.6C132.122 24.2 131.182 24 129.862 24C128.582 24 126.742 24.22 124.342 24.66V39.24C124.342 40.08 124.402 40.64 124.522 40.92C124.642 41.2 124.962 41.5 125.482 41.82L128.422 43.5L128.182 48H110.782L110.482 42.3ZM164.551 48.78C159.471 48.78 155.671 47.48 153.151 44.88C150.671 42.28 149.431 38.3 149.431 32.94C149.431 29.5 150.051 26.5 151.291 23.94C152.571 21.38 154.391 19.42 156.751 18.06C159.111 16.7 161.891 16.02 165.091 16.02C175.451 16.02 180.631 21.38 180.631 32.1C180.631 37.34 179.211 41.44 176.371 44.4C173.571 47.32 169.631 48.78 164.551 48.78ZM165.511 41.76C166.311 41.76 167.011 41.7 167.611 41.58C168.211 41.42 168.851 41.18 169.531 40.86C169.771 39.94 169.971 38.76 170.131 37.32C170.291 35.88 170.371 34.5 170.371 33.18C170.371 29.94 169.851 27.48 168.811 25.8C167.811 24.12 166.311 23.28 164.311 23.28C162.991 23.28 161.651 23.46 160.291 23.82C160.011 24.42 159.791 25.4 159.631 26.76C159.471 28.08 159.391 29.6 159.391 31.32C159.391 34.68 159.911 37.26 160.951 39.06C162.031 40.86 163.551 41.76 165.511 41.76ZM183.315 42.3L186.975 41.22V26.64C186.975 25.76 186.915 25.2 186.795 24.96C186.675 24.68 186.355 24.38 185.835 24.06L183.195 22.62L183.375 18.12C184.055 17.96 184.635 17.86 185.115 17.82C189.955 16.82 193.535 16.28 195.855 16.2C196.215 17.24 196.555 18.54 196.875 20.1C199.275 18.22 201.315 16.92 202.995 16.2H206.415C206.375 17.72 206.275 19.38 206.115 21.18C205.955 22.94 205.755 24.36 205.515 25.44C204.075 25.36 203.015 25.32 202.335 25.32C200.655 25.32 198.915 25.42 197.115 25.62V39.24C197.115 40.08 197.175 40.64 197.295 40.92C197.415 41.2 197.735 41.5 198.255 41.82L201.855 43.74L201.615 48H183.615L183.315 42.3ZM211.262 3.6L221.462 0.899998L223.922 10.02L213.782 12.78L211.262 3.6ZM208.742 42.48L212.942 41.22V26.64C212.942 25.76 212.862 25.2 212.702 24.96C212.582 24.68 212.242 24.38 211.682 24.06L209.042 22.62L209.342 18.12C212.662 17.48 215.222 17.02 217.022 16.74C218.862 16.42 220.542 16.24 222.062 16.2C222.582 17.92 222.902 19.2 223.022 20.04V39.24C223.022 40.08 223.082 40.64 223.202 40.92C223.322 41.2 223.662 41.5 224.222 41.82L227.162 43.5L226.922 48H208.922L208.742 42.48ZM237.95 48.78C235.23 48.78 233.05 48.04 231.41 46.56C229.77 45.04 228.95 43.1 228.95 40.74C228.95 37.58 230.53 35.1 233.69 33.3C236.89 31.5 241.53 30.48 247.61 30.24C247.61 28.36 247.45 26.98 247.13 26.1C246.85 25.18 246.31 24.56 245.51 24.24C244.75 23.88 243.57 23.7 241.97 23.7C240.33 23.7 239.17 23.76 238.49 23.88L236.03 28.74L231.59 28.44C230.91 25.24 230.43 21.92 230.15 18.48C232.39 17.72 234.83 17.12 237.47 16.68C240.15 16.24 242.65 16.02 244.97 16.02C249.21 16.02 252.25 16.86 254.09 18.54C255.93 20.18 256.85 22.92 256.85 26.76V39.3C256.85 40.02 256.91 40.52 257.03 40.8C257.19 41.08 257.51 41.36 257.99 41.64L260.39 43.02L260.15 46.74C255.51 47.82 251.85 48.42 249.17 48.54C249.09 48.3 248.97 47.88 248.81 47.28C248.65 46.64 248.51 46.04 248.39 45.48C246.83 46.48 245.11 47.28 243.23 47.88C241.39 48.48 239.63 48.78 237.95 48.78ZM241.97 42C243.57 42 245.51 41.46 247.79 40.38L247.55 35.82C246.59 35.74 245.95 35.7 245.63 35.7C244.55 35.7 243.29 35.82 241.85 36.06C240.41 36.26 239.27 36.5 238.43 36.78C238.31 37.3 238.25 37.78 238.25 38.22C238.25 39.42 238.57 40.36 239.21 41.04C239.89 41.68 240.81 42 241.97 42Z" fill="black"/>
</svg>
